<?xml version="1.0" encoding="utf-8"?>
<!DOCTYPE svg PUBLIC "-//W3C//DTD SVG 20010904//EN" "http://www.w3.org/TR/2001/REC-SVG-20010904/DTD/svg10.dtd">
<svg version="1.0" xmlns="http://www.w3.org/2000/svg" width="642px" height="642px" viewBox="0 0 642 642" preserveAspectRatio="xMidYMid meet">
 <g fill="#000000">
  <path d="M0 321 l0 -321 321 0 321 0 0 321 0 321 -321 0 -321 0 0 -321z m236.7 185.4 c6.1 -3.8 10.9 -10.1 12.9 -17 1.4 -5 1.4 -5.8 -0.2 -10.6 -2.3 -7.2 -8.7 -13.1 -21.2 -19.8 -14.5 -7.8 -15.6 -9.1 -16 -19.4 -0.4 -8.1 -0.3 -8.5 2.6 -11.7 2.5 -2.8 3.6 -3.3 8.8 -3.6 11.4 -0.8 15.2 3.5 15.3 17 l0.1 6.8 5.8 -0.3 5.7 -0.3 -0.1 -6.5 c-0.1 -11.2 -5.9 -20.6 -15.6 -25.4 -11.9 -6 -25.1 -0.7 -31.7 12.6 -3.7 7.2 -3.9 11.6 -1 19.3 2.8 7.5 8.5 12.9 21 19.7 14.3 7.8 15.4 9.1 15.4 17.9 0 6.4 -0.2 7.1 -3.3 10.1 -3 3.1 -3.7 3.3 -10.3 3.3 -6.7 0 -7.2 -0.2 -10 -3.3 -2.5 -2.8 -2.9 -4 -2.9 -9.2 l0 -6 -6 0 -6 0 0 4.3 c0 2.3 1.1 6.5 2.4 9.2 2.6 5.7 10.8 13.6 15.8 15.3 5.6 1.9 13.1 0.9 18.5 -2.4z m-98.7 -32.9 l0 -35.5 4 0 c3.8 0 4.2 0.3 8.6 7 5.4 8 5.2 8 11.1 -1.1 3.5 -5.5 4.1 -5.9 7.6 -5.9 l3.7 0 0 31.8 c0 17.4 0.3 33.4 0.6 35.5 l0.7 3.7 5.8 0 5.9 0 0 -47.5 0 -47.5 -7.2 0 -7.3 0 -5.9 9.1 -5.9 9 -4.1 -0.3 c-3.9 -0.3 -4.3 -0.7 -10 -9 l-6 -8.8 -6.8 0 -6.8 0 0 47.5 0 47.5 6 0 6 0 0 -35.5z m140 14.6 c0 -16.6 0.3 -21.1 1.4 -22 0.9 -0.8 5.4 -1.1 13.2 -0.9 l11.9 0.3 0.5 21.5 0.5 21.5 6.3 0.3 6.2 0.3 0 -33.9 c0 -18.6 -0.3 -40 -0.7 -47.5 l-0.6 -13.7 -5.9 0 -5.8 0 0 20 0 20.1 -13.2 -0.3 -13.3 -0.3 0.1 -19.7 0 -19.8 -6.3 0 -6.3 0 0 47.5 0 47.5 6 0 6 0 0 -20.9z m64.6 15.7 l0.9 -5.3 12.5 0 12.5 0 0.8 5.3 0.9 5.2 5.5 0 c5.4 0 5.5 0 4.9 -2.7 -0.9 -4.2 -15.6 -90.7 -15.6 -91.5 0 -0.5 -3.8 -0.8 -8.5 -0.8 -8 0 -8.5 0.1 -9 2.3 -0.7 3.3 -4.9 26.3 -9 49.7 -2 11.3 -4.5 25.1 -5.6 30.8 -1 5.7 -1.9 10.7 -1.9 11.3 0 0.5 2.4 0.9 5.4 0.9 l5.3 0 0.9 -5.2z m65.7 -15.9 c0.4 -11.5 0.9 -21.5 1.3 -22.1 1.1 -1.7 16.4 -0.5 20 1.6 5.9 3.5 6.4 5.6 6.4 24.5 l0 17.1 6.1 0 6.1 0 -0.4 -16.7 -0.3 -16.8 -3.2 -5.7 c-3.9 -6.9 -4.2 -10.8 -0.8 -15.2 8.1 -10.6 7.3 -22.8 -2.2 -32.3 -7 -7 -9.7 -7.8 -27.9 -8.1 l-16.1 -0.3 -0.6 12.2 c-0.4 6.7 -0.7 28.1 -0.7 47.6 l0 35.3 5.8 0 5.9 0 0.6 -21.1z m69.7 2.7 l0 -18.3 8.9 -0.6 c10.5 -0.7 14.5 -2.2 20.4 -7.6 13.4 -12.3 13.3 -34.5 -0.1 -44.8 -6 -4.5 -9.7 -5.3 -26.4 -5.3 l-14.8 0 0 47.5 0 47.5 6 0 6 0 0 -18.4z m-145.2 -142.3 c6 -9.3 19.2 -29.4 29.2 -44.8 10 -15.4 28 -42.7 39.9 -60.8 l21.6 -32.7 3.7 0.2 c3.8 0.3 3.8 0.4 22.8 29.3 17.1 26.1 19 29.4 19 33.2 l0 4.3 -31 0.2 -31 0.3 76.2 29.9 c42 16.5 78.4 30.8 81.1 31.8 l4.7 1.8 -2.2 -3.5 c-1.3 -2 -6.6 -10.2 -12 -18.3 -5.3 -8.1 -25.7 -39.2 -45.3 -69.2 -19.7 -30 -37.7 -57.4 -40 -61 -2.3 -3.6 -12.2 -18.5 -21.8 -33.3 -9.7 -14.7 -18.1 -27.6 -18.7 -28.7 -0.6 -1.1 -1.4 -2 -1.8 -2 -0.4 0 -3.7 4.6 -7.4 10.3 -3.6 5.6 -14.9 22.8 -25 38.2 -10.1 15.4 -30 45.9 -44.3 67.7 -25.4 38.9 -26.1 39.7 -29.3 39.8 -3.6 0 0.4 5.7 -47 -66.5 -46.3 -70.7 -58.8 -89.5 -59.2 -89.5 -0.3 0 -23.9 35.7 -52.5 79.3 -28.6 43.5 -60.1 91.6 -70 106.7 -10 15.1 -18.4 28.1 -18.9 28.7 -0.5 1 -0.2 1.1 1.6 0.4 1.3 -0.5 27.7 -10.9 58.8 -23.1 31.1 -12.2 66.5 -26 78.7 -30.8 l22.2 -8.7 -31.2 -0.5 -31.2 -0.5 -0.3 -3.3 c-0.3 -2.9 2.3 -7.3 19.5 -33.3 l19.8 -29.9 3.7 0 c2.7 0 4 0.5 4.8 1.9 0.5 1.1 9 14.1 18.7 28.8 22.6 34.5 42.4 64.6 64.2 97.8 9.6 14.6 17.7 26.5 18.1 26.5 0.4 0 5.7 -7.5 11.8 -16.7z"/>
  <path d="M346 486.3 c0 -1 1.4 -11.1 3.2 -22.5 l3.3 -20.8 3.8 0 c2 0 3.7 0.3 3.7 0.8 0 0.4 1.1 8.4 2.5 17.7 1.4 9.4 2.5 19.1 2.5 21.8 l0 4.7 -9.5 0 c-8.4 0 -9.5 -0.2 -9.5 -1.7z"/>
  <path d="M409 439.5 l0 -14.5 9.3 0 c10.9 0 15.3 1.7 18 7 2.3 4.5 1.9 13 -1 16.8 -3.2 4.3 -6 5.2 -16.5 5.2 l-9.8 0 0 -14.5z"/>
  <path d="M478.2 442.8 l0.3 -17.3 8.1 -0.3 c15.1 -0.5 19.4 3.1 19.4 16.3 0 8.2 -2.8 15.2 -7 17.2 -1.4 0.7 -6.4 1.3 -11.8 1.3 l-9.2 0 0.2 -17.2z"/>
 </g>
 <g fill="#ffffff">
  <path d="M215.2 511.7 c-5 -1.6 -13.2 -9.4 -15.8 -15.2 -1.8 -3.8 -2.4 -6.8 -2.4 -12.2 l0 -7.3 9 0 9 0 0 6 c0 5.1 0.4 6.4 2.8 9.1 6.1 6.8 17.3 2.4 17.6 -6.9 0.1 -5.5 -2.3 -7.9 -15.3 -15 -17.4 -9.5 -23.1 -17.5 -23.1 -32.1 0 -5.6 0.5 -7.9 3.1 -12.9 5.2 -10.4 13.1 -15.2 25.2 -15.2 12 0 21 5.9 26.1 16.9 1.6 3.6 2 6.7 2.1 14.1 l0 9.5 -8.7 0.3 -8.8 0.3 -0.1 -6.8 c0 -9.6 -1.6 -13.4 -6.1 -15.6 -4.9 -2.4 -8.9 -1.5 -12.4 2.6 -2.3 2.7 -2.6 3.8 -2.2 8.4 0.6 7 2.9 9.3 16 16.3 12.6 6.8 18.8 12.6 21.3 19.9 4.3 13 -2.2 28.3 -14.7 34.5 -4.2 2.1 -6.5 2.6 -12.2 2.5 -3.9 -0.1 -8.6 -0.6 -10.4 -1.2z"/>
  <path d="M123 461.5 l0 -50.5 9.8 0 9.8 0 6 8.7 c3.2 4.8 6.4 8.8 7 9 0.6 0.2 3.8 -3.7 7 -8.7 l5.9 -9 10.3 0 10.2 0 0 50.5 0 50.5 -8.9 0 -8.8 0 -0.7 -3.7 c-0.3 -2.1 -0.6 -18.1 -0.6 -35.5 0 -17.5 -0.3 -31.8 -0.7 -31.8 -0.5 0.1 -3.5 4.1 -6.8 9 -3.3 4.9 -6.3 9 -6.7 9 -0.4 0 -3.5 -4 -6.8 -9 -3.3 -4.9 -6.5 -9 -7 -9 -0.6 0 -1 13.1 -1 35.5 l0 35.5 -9 0 -9 0 0 -50.5z"/>
  <path d="M263 461.5 l0 -50.5 9.5 0 9.5 0 -0.3 19.8 -0.2 19.7 10.3 0.3 10.2 0.3 0 -20.1 0 -20 8.8 0 8.9 0 0.6 13.7 c0.4 7.5 0.7 30.2 0.7 50.5 l0 36.9 -9.2 -0.3 -9.3 -0.3 -0.5 -21.5 -0.5 -21.5 -8.8 -0.3 c-5.7 -0.2 -9.4 0.1 -10.3 0.9 -1.1 0.9 -1.4 5.3 -1.4 22 l0 20.9 -9 0 -9 0 0 -50.5z"/>
  <path d="M327 511.1 c0 -0.5 1.1 -7 2.4 -14.3 1.4 -7.3 4.1 -22.5 6.1 -33.8 4.2 -24 8.3 -46.6 9 -49.7 0.5 -2.2 0.9 -2.3 12 -2.3 6.3 0 11.5 0.3 11.5 0.7 0 0.9 15.7 93.4 16.6 97.6 l0.6 2.7 -9 0 -9 0 -0.9 -5.2 -0.8 -5.3 -9.5 0 -9.5 0 -0.9 5.3 -0.9 5.2 -8.8 0 c-4.9 0 -8.9 -0.4 -8.9 -0.9z m35 -27.8 c0 -1 -1.1 -9.4 -2.5 -18.8 -1.4 -9.3 -2.5 -17.3 -2.5 -17.7 0 -0.5 -0.3 -0.8 -0.8 -0.8 -0.4 0 -1.5 5.1 -2.5 11.3 -1 6.1 -2.3 14.9 -3.1 19.5 l-1.3 8.2 6.3 0 c5.4 0 6.4 -0.3 6.4 -1.7z"/>
  <path d="M393 473.7 c0 -21.1 0.3 -43.9 0.7 -50.6 l0.6 -12.2 19.1 0.3 c21.5 0.3 23.7 0.9 30.9 8.1 9.8 9.8 11.1 25 3.2 36.8 l-3.4 5 3.2 5.7 3.2 5.7 0.3 19.8 0.4 19.7 -9.1 0 -9.1 0 0 -17.1 c0 -14 -0.3 -17.6 -1.6 -19.9 -2.5 -4.1 -6.9 -6.3 -13.3 -6.4 l-5.6 -0.1 -0.7 8.5 c-0.3 4.7 -0.6 14.5 -0.7 21.8 l-0.1 13.2 -9 0 -9 0 0 -38.3z m37.4 -25.6 c4.1 -3.8 5.1 -8.4 2.9 -12.9 -2.4 -5 -7.1 -7.2 -15 -7.2 l-6.3 0 0 11.6 0 11.6 7.9 -0.3 c6.7 -0.4 8.3 -0.8 10.5 -2.8z"/>
  <path d="M463 461.5 l0 -50.5 17.8 0 c9.7 0 19.4 0.5 21.4 1 6 1.7 11.9 6.9 15.3 13.4 2.7 5.3 3 6.8 3 15.5 0 8.5 -0.4 10.3 -2.9 15.8 -3.2 6.9 -9.5 13.5 -15.3 16 -2 0.8 -7.6 1.7 -12.4 2 l-8.9 0.6 0 18.3 0 18.4 -9 0 -9 0 0 -50.5z m33 -5.8 c3.3 -1.6 7 -9.1 7 -14.2 0 -9.2 -5.9 -13.9 -16.5 -13.3 l-5 0.3 -0.3 14.3 -0.3 14.2 6.3 0 c3.5 0 7.4 -0.6 8.8 -1.3z"/>
  <path d="M301.5 344 c-10.4 -16 -25.7 -39.3 -34 -51.9 -8.2 -12.5 -22.9 -34.8 -32.5 -49.5 -20.9 -32 -19.7 -30.2 -20.3 -29.6 -2.6 2.9 -39.4 59.6 -39.1 60.2 0.3 0.4 17.7 0.8 38.7 0.9 l38.2 0 -4 2 c-2.2 1 -31.7 12.7 -65.5 25.9 -33.8 13.3 -74.2 29.1 -89.8 35.2 -15.5 6.1 -28.5 10.8 -28.8 10.5 -0.4 -0.3 0.9 -3 2.9 -5.9 5.3 -8.1 33.1 -50.4 92.6 -141.1 29.9 -45.5 54.8 -82.6 55.3 -82.5 0.9 0.3 16.2 23.4 59.8 89.8 34.7 53 46.1 70.2 46.4 69.9 0.2 -0.2 13.1 -20 28.8 -43.9 15.7 -23.9 34.6 -52.7 42 -64 7.4 -11.3 18 -27.6 23.7 -36.2 5.7 -8.7 10.7 -15.8 11.2 -15.8 0.5 0 2.9 3 5.3 6.8 2.3 3.7 11.2 17.3 19.7 30.2 8.5 12.9 20.1 30.5 25.6 39 5.6 8.5 23.8 36.3 40.5 61.7 67.9 103.7 60.7 92.3 58.9 92.3 -1.5 0 -185.4 -72.1 -186.5 -73.1 -0.6 -0.5 15.9 -0.9 37.3 -0.9 36 0 38.3 -0.1 37.9 -1.7 -0.6 -2.2 -37.5 -58.7 -38.6 -59 -0.7 -0.3 -25.7 37.2 -61.2 91.7 -9.5 14.6 -22.8 34.9 -29.6 45.2 -6.8 10.3 -12.8 19.7 -13.4 20.8 -0.6 1.1 -1.4 2 -1.8 2 -0.4 0 -9.2 -13.1 -19.7 -29z"/>
 </g>
</svg>